ffmpeg started on 2025-06-12 at 18:03:17
Report written to "D:\Convert\FFMetrics\reports\ssim_report-6.txt"
Log level: 32
Command line:
ffmpeg -hide_banner -nostdin -i "G:\\\xc0\xed\xe8\xec\xe5\\[\xd2\xee\xef]\\Fate\\\xd1\xf2\xf0\xe0\xed\xed\xe0\xff \xef\xee\xe4\xe4\xe5\xeb\xea\xe0\\[\xd4\xe8\xeb\xfc\xec] \xd8\xb8\xef\xee\xf2 \xf0\xe0\xf1\xf1\xe2\xe5\xf2\xe0\\JamClub_Fate_strange_Fake_Whispers_of_Dawn_1080p_HEVC.mkv" -i "G:\\\xc0\xed\xe8\xec\xe5\\[\xd2\xee\xef]\\Fate\\\xd1\xf2\xf0\xe0\xed\xed\xe0\xff \xef\xee\xe4\xe4\xe5\xeb\xea\xe0\\[\xd4\xe8\xeb\xfc\xec] \xd8\xb8\xef\xee\xf2 \xf0\xe0\xf1\xf1\xe2\xe5\xf2\xe0\\JamClub_Fate_strange_Fake_Whispers_of_Dawn_1080p.mp4" -lavfi "[0:v]settb=AVTB,setpts=PTS-STARTPTS,format=pix_fmts=yuv420p10,fps=24000/1001,scale=1920:1080:flags=bicubic[main];[1:v]settb=AVTB,setpts=PTS-STARTPTS,format=pix_fmts=yuv420p,fps=24000/1001,scale=1920:1080:flags=bicubic[ref];[main][ref]ssim=eof_action=endall:stats_file='D\\:/Convert/FFMetrics/logs/ssim_logfile-6.txt'" -f null -
Input #0, matroska,webm, from 'G:\Аниме\[Топ]\Fate\Странная подделка\[Фильм] Шёпот рассвета\JamClub_Fate_strange_Fake_Whispers_of_Dawn_1080p_HEVC.mkv':
  Metadata:
    COMPATIBLE_BRANDS: isomiso2avc1mp41
    MAJOR_BRAND     : isom
    MINOR_VERSION   : 512
    ENCODER         : Lavf61.7.100
  Duration: 00:56:17.32, start: -0.001000, bitrate: 1423 kb/s
  Stream #0:0: Video: hevc (Main 10), yuv420p10le(tv, bt709, progressive), 1920x1080 [SAR 1:1 DAR 16:9], 23.98 fps, 23.98 tbr, 1k tbn (default)
      Metadata:
        HANDLER_NAME    : VideoHandler
        VENDOR_ID       : [0][0][0][0]
        ENCODER         : Lavc61.19.100 libx265
        BPS             : 1223674
        DURATION        : 00:56:16.247708333
        NUMBER_OF_FRAMES: 80949
        NUMBER_OF_BYTES : 516428323
        _STATISTICS_WRITING_APP: mkvpropedit v66.0.0 ('Josie') 64-bit
        _STATISTICS_WRITING_DATE_UTC: 2025-06-12 14:39:36
        _STATISTICS_TAGS: BPS DURATION NUMBER_OF_FRAMES NUMBER_OF_BYTES
  Stream #0:1(eng): Audio: aac (LC), 48000 Hz, stereo, fltp (default)
      Metadata:
        HANDLER_NAME    : SoundHandler
        VENDOR_ID       : [0][0][0][0]
        ENCODER         : Lavc61.19.100 aac
        BPS             : 196445
        DURATION        : 00:56:17.283000000
        NUMBER_OF_FRAMES: 158311
        NUMBER_OF_BYTES : 82931477
        _STATISTICS_WRITING_APP: mkvpropedit v66.0.0 ('Josie') 64-bit
        _STATISTICS_WRITING_DATE_UTC: 2025-06-12 14:39:36
        _STATISTICS_TAGS: BPS DURATION NUMBER_OF_FRAMES NUMBER_OF_BYTES
Input #1, mov,mp4,m4a,3gp,3g2,mj2, from 'G:\Аниме\[Топ]\Fate\Странная подделка\[Фильм] Шёпот рассвета\JamClub_Fate_strange_Fake_Whispers_of_Dawn_1080p.mp4':
  Metadata:
    major_brand     : isom
    minor_version   : 512
    compatible_brands: isomiso2avc1mp41
    encoder         : Lavf60.16.100
  Duration: 00:56:17.30, start: 0.000000, bitrate: 5047 kb/s
  Stream #1:0[0x1](und): Video: h264 (High) (avc1 / 0x31637661), yuv420p(progressive), 1920x1080 [SAR 1:1 DAR 16:9], 4850 kb/s, 23.98 fps, 23.98 tbr, 90k tbn (default)
      Metadata:
        handler_name    : VideoHandler
        vendor_id       : [0][0][0][0]
  Stream #1:1[0x2](eng): Audio: aac (LC) (mp4a / 0x6134706D), 48000 Hz, stereo, fltp, 191 kb/s (default)
      Metadata:
        handler_name    : SoundHandler
        vendor_id       : [0][0][0][0]
Stream mapping:
  Stream #0:0 (hevc) -> settb:default
  Stream #1:0 (h264) -> settb:default
  ssim:default -> Stream #0:0 (wrapped_avframe)
  Stream #0:1 -> #0:1 (aac (native) -> pcm_s16le (native))
Output #0, null, to 'pipe:':
  Metadata:
    COMPATIBLE_BRANDS: isomiso2avc1mp41
    MAJOR_BRAND     : isom
    MINOR_VERSION   : 512
    encoder         : Lavf61.7.100
  Stream #0:0: Video: wrapped_avframe, yuv420p10le(tv, bt709, progressive), 1920x1080 [SAR 1:1 DAR 16:9], q=2-31, 200 kb/s, 23.98 fps, 23.98 tbn
      Metadata:
        encoder         : Lavc61.19.100 wrapped_avframe
  Stream #0:1(eng): Audio: pcm_s16le, 48000 Hz, stereo, s16, 1536 kb/s (default)
      Metadata:
        HANDLER_NAME    : SoundHandler
        VENDOR_ID       : [0][0][0][0]
        _STATISTICS_TAGS: BPS DURATION NUMBER_OF_FRAMES NUMBER_OF_BYTES
        BPS             : 196445
        DURATION        : 00:56:17.283000000
        NUMBER_OF_FRAMES: 158311
        NUMBER_OF_BYTES : 82931477
        _STATISTICS_WRITING_APP: mkvpropedit v66.0.0 ('Josie') 64-bit
        _STATISTICS_WRITING_DATE_UTC: 2025-06-12 14:39:36
        encoder         : Lavc61.19.100 pcm_s16le
frame=  113 fps=0.0 q=-0.0 size=N/A time=00:00:04.71 bitrate=N/A speed=9.16x    frame=  277 fps=268 q=-0.0 size=N/A time=00:00:11.55 bitrate=N/A speed=11.2x    frame=  484 fps=314 q=-0.0 size=N/A time=00:00:20.18 bitrate=N/A speed=13.1x    frame=  738 fps=358 q=-0.0 size=N/A time=00:00:30.78 bitrate=N/A speed=14.9x    frame=  972 fps=378 q=-0.0 size=N/A time=00:00:40.54 bitrate=N/A speed=15.8x    frame= 1180 fps=381 q=-0.0 size=N/A time=00:00:49.21 bitrate=N/A speed=15.9x    frame= 1406 fps=390 q=-0.0 size=N/A time=00:00:58.64 bitrate=N/A speed=16.3x    frame= 1636 fps=396 q=-0.0 size=N/A time=00:01:08.23 bitrate=N/A speed=16.5x    frame= 1848 fps=398 q=-0.0 size=N/A time=00:01:17.07 bitrate=N/A speed=16.6x    frame= 2050 fps=398 q=-0.0 size=N/A time=00:01:25.50 bitrate=N/A speed=16.6x    frame= 2257 fps=397 q=-0.0 size=N/A time=00:01:34.13 bitrate=N/A speed=16.6x    frame= 2498 fps=404 q=-0.0 size=N/A time=00:01:44.18 bitrate=N/A speed=16.8x    frame= 2744 fps=409 q=-0.0 size=N/A time=00:01:54.44 bitrate=N/A speed=17.1x    frame= 3019 fps=417 q=-0.0 size=N/A time=00:02:05.91 bitrate=N/A speed=17.4x    frame= 3301 fps=426 q=-0.0 size=N/A time=00:02:17.67 bitrate=N/A speed=17.8x    frame= 3589 fps=434 q=-0.0 size=N/A time=00:02:29.69 bitrate=N/A speed=18.1x    frame= 3872 fps=441 q=-0.0 size=N/A time=00:02:41.49 bitrate=N/A speed=18.4x    frame= 4106 fps=442 q=-0.0 size=N/A time=00:02:51.25 bitrate=N/A speed=18.4x    frame= 4354 fps=444 q=-0.0 size=N/A time=00:03:01.59 bitrate=N/A speed=18.5x    frame= 4620 fps=447 q=-0.0 size=N/A time=00:03:12.69 bitrate=N/A speed=18.7x    frame= 4850 fps=447 q=-0.0 size=N/A time=00:03:22.28 bitrate=N/A speed=18.6x    frame= 5088 fps=448 q=-0.0 size=N/A time=00:03:32.21 bitrate=N/A speed=18.7x    frame= 5318 fps=448 q=-0.0 size=N/A time=00:03:41.80 bitrate=N/A speed=18.7x    frame= 5553 fps=448 q=-0.0 size=N/A time=00:03:51.60 bitrate=N/A speed=18.7x    frame= 5784 fps=448 q=-0.0 size=N/A time=00:04:01.24 bitrate=N/A speed=18.7x    frame= 6049 fps=450 q=-0.0 size=N/A time=00:04:12.29 bitrate=N/A speed=18.8x    frame= 6280 fps=451 q=-0.0 size=N/A time=00:04:21.92 bitrate=N/A speed=18.8x    frame= 6546 fps=453 q=-0.0 size=N/A time=00:04:33.02 bitrate=N/A speed=18.9x    frame= 6789 fps=454 q=-0.0 size=N/A time=00:04:43.15 bitrate=N/A speed=18.9x    frame= 6964 fps=450 q=-0.0 size=N/A time=00:04:50.45 bitrate=N/A speed=18.8x    frame= 7153 fps=447 q=-0.0 size=N/A time=00:04:58.33 bitrate=N/A speed=18.6x    frame= 7388 fps=447 q=-0.0 size=N/A time=00:05:08.14 bitrate=N/A speed=18.7x    frame= 7654 fps=449 q=-0.0 size=N/A time=00:05:19.23 bitrate=N/A speed=18.7x    frame= 7918 fps=451 q=-0.0 size=N/A time=00:05:30.24 bitrate=N/A speed=18.8x    frame= 8163 fps=452 q=-0.0 size=N/A time=00:05:40.46 bitrate=N/A speed=18.8x    frame= 8379 fps=451 q=-0.0 size=N/A time=00:05:49.47 bitrate=N/A speed=18.8x    frame= 8608 fps=450 q=-0.0 size=N/A time=00:05:59.02 bitrate=N/A speed=18.8x    frame= 8773 fps=447 q=-0.0 size=N/A time=00:06:05.90 bitrate=N/A speed=18.6x    frame= 9011 fps=447 q=-0.0 size=N/A time=00:06:15.83 bitrate=N/A speed=18.7x    frame= 9250 fps=448 q=-0.0 size=N/A time=00:06:25.80 bitrate=N/A speed=18.7x    frame= 9511 fps=449 q=-0.0 size=N/A time=00:06:36.68 bitrate=N/A speed=18.7x    frame= 9755 fps=450 q=-0.0 size=N/A time=00:06:46.86 bitrate=N/A speed=18.8x    frame=10005 fps=451 q=-0.0 size=N/A time=00:06:57.29 bitrate=N/A speed=18.8x    frame=10248 fps=451 q=-0.0 size=N/A time=00:07:07.42 bitrate=N/A speed=18.8x    frame=10493 fps=452 q=-0.0 size=N/A time=00:07:17.64 bitrate=N/A speed=18.8x    frame=10775 fps=454 q=-0.0 size=N/A time=00:07:29.40 bitrate=N/A speed=18.9x    frame=10995 fps=453 q=-0.0 size=N/A time=00:07:38.58 bitrate=N/A speed=18.9x    frame=11237 fps=453 q=-0.0 size=N/A time=00:07:48.67 bitrate=N/A speed=18.9x    frame=11488 fps=454 q=-0.0 size=N/A time=00:07:59.14 bitrate=N/A speed=18.9x    frame=11673 fps=452 q=-0.0 size=N/A time=00:08:06.86 bitrate=N/A speed=18.9x    frame=11881 fps=451 q=-0.0 size=N/A time=00:08:15.53 bitrate=N/A speed=18.8x    frame=12143 fps=452 q=-0.0 size=N/A time=00:08:26.46 bitrate=N/A speed=18.9x    frame=12395 fps=453 q=-0.0 size=N/A time=00:08:36.97 bitrate=N/A speed=18.9x    frame=12682 fps=455 q=-0.0 size=N/A time=00:08:48.94 bitrate=N/A speed=  19x    frame=12950 fps=456 q=-0.0 size=N/A time=00:09:00.12 bitrate=N/A speed=  19x    frame=13201 fps=457 q=-0.0 size=N/A time=00:09:10.59 bitrate=N/A speed=  19x    frame=13391 fps=455 q=-0.0 size=N/A time=00:09:18.51 bitrate=N/A speed=  19x    frame=13639 fps=455 q=-0.0 size=N/A time=00:09:28.85 bitrate=N/A speed=  19x    frame=13866 fps=455 q=-0.0 size=N/A time=00:09:38.32 bitrate=N/A speed=  19x    frame=14129 fps=456 q=-0.0 size=N/A time=00:09:49.29 bitrate=N/A speed=  19x    frame=14379 fps=457 q=-0.0 size=N/A time=00:09:59.72 bitrate=N/A speed=  19x    frame=14624 fps=457 q=-0.0 size=N/A time=00:10:09.94 bitrate=N/A speed=19.1x    frame=14863 fps=457 q=-0.0 size=N/A time=00:10:19.91 bitrate=N/A speed=19.1x    frame=15116 fps=458 q=-0.0 size=N/A time=00:10:30.46 bitrate=N/A speed=19.1x    frame=15351 fps=458 q=-0.0 size=N/A time=00:10:40.26 bitrate=N/A speed=19.1x    frame=15618 fps=459 q=-0.0 size=N/A time=00:10:51.40 bitrate=N/A speed=19.1x    frame=15856 fps=458 q=-0.0 size=N/A time=00:11:01.32 bitrate=N/A speed=19.1x    frame=16137 fps=460 q=-0.0 size=N/A time=00:11:13.04 bitrate=N/A speed=19.2x    frame=16383 fps=460 q=-0.0 size=N/A time=00:11:23.30 bitrate=N/A speed=19.2x    frame=16667 fps=461 q=-0.0 size=N/A time=00:11:35.15 bitrate=N/A speed=19.2x    frame=16940 fps=462 q=-0.0 size=N/A time=00:11:46.53 bitrate=N/A speed=19.3x    frame=17232 fps=463 q=-0.0 size=N/A time=00:11:58.71 bitrate=N/A speed=19.3x    frame=17508 fps=465 q=-0.0 size=N/A time=00:12:10.22 bitrate=N/A speed=19.4x    frame=17745 fps=464 q=-0.0 size=N/A time=00:12:20.11 bitrate=N/A speed=19.4x    frame=18017 fps=465 q=-0.0 size=N/A time=00:12:31.45 bitrate=N/A speed=19.4x    frame=18302 fps=467 q=-0.0 size=N/A time=00:12:43.34 bitrate=N/A speed=19.5x    frame=18567 fps=467 q=-0.0 size=N/A time=00:12:54.39 bitrate=N/A speed=19.5x    frame=18843 fps=468 q=-0.0 size=N/A time=00:13:05.91 bitrate=N/A speed=19.5x    frame=19087 fps=468 q=-0.0 size=N/A time=00:13:16.08 bitrate=N/A speed=19.5x    frame=19321 fps=468 q=-0.0 size=N/A time=00:13:25.84 bitrate=N/A speed=19.5x    frame=19593 fps=468 q=-0.0 size=N/A time=00:13:37.19 bitrate=N/A speed=19.5x    frame=19853 fps=469 q=-0.0 size=N/A time=00:13:48.03 bitrate=N/A speed=19.6x    frame=20103 fps=469 q=-0.0 size=N/A time=00:13:58.46 bitrate=N/A speed=19.6x    frame=20371 fps=470 q=-0.0 size=N/A time=00:14:09.64 bitrate=N/A speed=19.6x    frame=20611 fps=470 q=-0.0 size=N/A time=00:14:19.65 bitrate=N/A speed=19.6x    frame=20829 fps=469 q=-0.0 size=N/A time=00:14:28.74 bitrate=N/A speed=19.6x    frame=21088 fps=469 q=-0.0 size=N/A time=00:14:39.54 bitrate=N/A speed=19.6x    frame=21326 fps=469 q=-0.0 size=N/A time=00:14:49.47 bitrate=N/A speed=19.6x    frame=21559 fps=469 q=-0.0 size=N/A time=00:14:59.18 bitrate=N/A speed=19.6x    frame=21794 fps=469 q=-0.0 size=N/A time=00:15:08.99 bitrate=N/A speed=19.6x    frame=22013 fps=469 q=-0.0 size=N/A time=00:15:18.12 bitrate=N/A speed=19.5x    frame=22282 fps=469 q=-0.0 size=N/A time=00:15:29.34 bitrate=N/A speed=19.6x    frame=22545 fps=470 q=-0.0 size=N/A time=00:15:40.31 bitrate=N/A speed=19.6x    frame=22783 fps=469 q=-0.0 size=N/A time=00:15:50.24 bitrate=N/A speed=19.6x    frame=23061 fps=470 q=-0.0 size=N/A time=00:16:01.83 bitrate=N/A speed=19.6x    frame=23348 fps=471 q=-0.0 size=N/A time=00:16:13.80 bitrate=N/A speed=19.6x    frame=23625 fps=472 q=-0.0 size=N/A time=00:16:25.35 bitrate=N/A speed=19.7x    frame=23862 fps=471 q=-0.0 size=N/A time=00:16:35.24 bitrate=N/A speed=19.7x    frame=24091 fps=471 q=-0.0 size=N/A time=00:16:44.79 bitrate=N/A speed=19.6x    frame=24308 fps=470 q=-0.0 size=N/A time=00:16:53.84 bitrate=N/A speed=19.6x    frame=24542 fps=470 q=-0.0 size=N/A time=00:17:03.60 bitrate=N/A speed=19.6x    frame=24776 fps=470 q=-0.0 size=N/A time=00:17:13.36 bitrate=N/A speed=19.6x    frame=25015 fps=470 q=-0.0 size=N/A time=00:17:23.33 bitrate=N/A speed=19.6x    frame=25230 fps=470 q=-0.0 size=N/A time=00:17:32.30 bitrate=N/A speed=19.6x    frame=25397 fps=468 q=-0.0 size=N/A time=00:17:39.26 bitrate=N/A speed=19.5x    frame=25637 fps=468 q=-0.0 size=N/A time=00:17:49.27 bitrate=N/A speed=19.5x    frame=25850 fps=468 q=-0.0 size=N/A time=00:17:58.16 bitrate=N/A speed=19.5x    frame=26096 fps=468 q=-0.0 size=N/A time=00:18:08.42 bitrate=N/A speed=19.5x    frame=26360 fps=468 q=-0.0 size=N/A time=00:18:19.43 bitrate=N/A speed=19.5x    frame=26635 fps=469 q=-0.0 size=N/A time=00:18:30.90 bitrate=N/A speed=19.5x    frame=26902 fps=469 q=-0.0 size=N/A time=00:18:42.03 bitrate=N/A speed=19.6x    frame=27161 fps=469 q=-0.0 size=N/A time=00:18:52.84 bitrate=N/A speed=19.6x    frame=27424 fps=470 q=-0.0 size=N/A time=00:19:03.80 bitrate=N/A speed=19.6x    frame=27652 fps=470 q=-0.0 size=N/A time=00:19:13.31 bitrate=N/A speed=19.6x    frame=27880 fps=469 q=-0.0 size=N/A time=00:19:22.82 bitrate=N/A speed=19.6x    frame=28113 fps=469 q=-0.0 size=N/A time=00:19:32.54 bitrate=N/A speed=19.6x    frame=28357 fps=469 q=-0.0 size=N/A time=00:19:42.72 bitrate=N/A speed=19.6x    frame=28617 fps=469 q=-0.0 size=N/A time=00:19:53.56 bitrate=N/A speed=19.6x    frame=28891 fps=470 q=-0.0 size=N/A time=00:20:04.99 bitrate=N/A speed=19.6x    frame=29075 fps=469 q=-0.0 size=N/A time=00:20:12.66 bitrate=N/A speed=19.6x    frame=29302 fps=469 q=-0.0 size=N/A time=00:20:22.13 bitrate=N/A speed=19.6x    frame=29558 fps=469 q=-0.0 size=N/A time=00:20:32.81 bitrate=N/A speed=19.6x    frame=29823 fps=469 q=-0.0 size=N/A time=00:20:43.86 bitrate=N/A speed=19.6x    frame=30116 fps=470 q=-0.0 size=N/A time=00:20:56.08 bitrate=N/A speed=19.6x    frame=30361 fps=470 q=-0.0 size=N/A time=00:21:06.30 bitrate=N/A speed=19.6x    frame=30606 fps=470 q=-0.0 size=N/A time=00:21:16.52 bitrate=N/A speed=19.6x    frame=30829 fps=470 q=-0.0 size=N/A time=00:21:25.82 bitrate=N/A speed=19.6x    frame=31093 fps=470 q=-0.0 size=N/A time=00:21:36.83 bitrate=N/A speed=19.6x    frame=31334 fps=470 q=-0.0 size=N/A time=00:21:46.88 bitrate=N/A speed=19.6x    frame=31599 fps=471 q=-0.0 size=N/A time=00:21:57.94 bitrate=N/A speed=19.6x    frame=31823 fps=470 q=-0.0 size=N/A time=00:22:07.28 bitrate=N/A speed=19.6x    frame=32043 fps=470 q=-0.0 size=N/A time=00:22:16.46 bitrate=N/A speed=19.6x    frame=32270 fps=470 q=-0.0 size=N/A time=00:22:25.92 bitrate=N/A speed=19.6x    frame=32471 fps=469 q=-0.0 size=N/A time=00:22:34.31 bitrate=N/A speed=19.6x    frame=32678 fps=469 q=-0.0 size=N/A time=00:22:42.94 bitrate=N/A speed=19.5x    frame=32885 fps=468 q=-0.0 size=N/A time=00:22:51.57 bitrate=N/A speed=19.5x    frame=33120 fps=468 q=-0.0 size=N/A time=00:23:01.38 bitrate=N/A speed=19.5x    frame=33352 fps=468 q=-0.0 size=N/A time=00:23:11.05 bitrate=N/A speed=19.5x    frame=33529 fps=467 q=-0.0 size=N/A time=00:23:18.43 bitrate=N/A speed=19.5x    frame=33726 fps=466 q=-0.0 size=N/A time=00:23:26.65 bitrate=N/A speed=19.5x    frame=33983 fps=467 q=-0.0 size=N/A time=00:23:37.37 bitrate=N/A speed=19.5x    frame=34218 fps=467 q=-0.0 size=N/A time=00:23:47.17 bitrate=N/A speed=19.5x    frame=34446 fps=466 q=-0.0 size=N/A time=00:23:56.68 bitrate=N/A speed=19.5x    frame=34684 fps=466 q=-0.0 size=N/A time=00:24:06.61 bitrate=N/A speed=19.5x    frame=34917 fps=466 q=-0.0 size=N/A time=00:24:16.32 bitrate=N/A speed=19.4x    frame=35178 fps=467 q=-0.0 size=N/A time=00:24:27.21 bitrate=N/A speed=19.5x    frame=35437 fps=467 q=-0.0 size=N/A time=00:24:38.01 bitrate=N/A speed=19.5x    frame=35621 fps=466 q=-0.0 size=N/A time=00:24:45.69 bitrate=N/A speed=19.4x    frame=35845 fps=466 q=-0.0 size=N/A time=00:24:55.03 bitrate=N/A speed=19.4x    frame=36061 fps=466 q=-0.0 size=N/A time=00:25:04.04 bitrate=N/A speed=19.4x    frame=36255 fps=465 q=-0.0 size=N/A time=00:25:12.13 bitrate=N/A speed=19.4x    frame=36446 fps=464 q=-0.0 size=N/A time=00:25:20.10 bitrate=N/A speed=19.4x    frame=36654 fps=464 q=-0.0 size=N/A time=00:25:28.77 bitrate=N/A speed=19.3x    frame=36831 fps=463 q=-0.0 size=N/A time=00:25:36.15 bitrate=N/A speed=19.3x    frame=37002 fps=462 q=-0.0 size=N/A time=00:25:43.29 bitrate=N/A speed=19.3x    frame=37168 fps=461 q=-0.0 size=N/A time=00:25:50.21 bitrate=N/A speed=19.2x    frame=37367 fps=461 q=-0.0 size=N/A time=00:25:58.51 bitrate=N/A speed=19.2x    frame=37553 fps=460 q=-0.0 size=N/A time=00:26:06.27 bitrate=N/A speed=19.2x    frame=37768 fps=460 q=-0.0 size=N/A time=00:26:15.24 bitrate=N/A speed=19.2x    frame=37999 fps=460 q=-0.0 size=N/A time=00:26:24.87 bitrate=N/A speed=19.2x    frame=38240 fps=460 q=-0.0 size=N/A time=00:26:34.92 bitrate=N/A speed=19.2x    frame=38497 fps=460 q=-0.0 size=N/A time=00:26:45.64 bitrate=N/A speed=19.2x    frame=38747 fps=460 q=-0.0 size=N/A time=00:26:56.07 bitrate=N/A speed=19.2x    frame=38952 fps=460 q=-0.0 size=N/A time=00:27:04.62 bitrate=N/A speed=19.2x    frame=39180 fps=460 q=-0.0 size=N/A time=00:27:14.13 bitrate=N/A speed=19.2x    frame=39397 fps=460 q=-0.0 size=N/A time=00:27:23.18 bitrate=N/A speed=19.2x    frame=39625 fps=459 q=-0.0 size=N/A time=00:27:32.69 bitrate=N/A speed=19.2x    frame=39874 fps=460 q=-0.0 size=N/A time=00:27:43.07 bitrate=N/A speed=19.2x    frame=40110 fps=460 q=-0.0 size=N/A time=00:27:52.92 bitrate=N/A speed=19.2x    frame=40370 fps=460 q=-0.0 size=N/A time=00:28:03.76 bitrate=N/A speed=19.2x    frame=40623 fps=460 q=-0.0 size=N/A time=00:28:14.31 bitrate=N/A speed=19.2x    frame=40879 fps=460 q=-0.0 size=N/A time=00:28:24.99 bitrate=N/A speed=19.2x    frame=41097 fps=460 q=-0.0 size=N/A time=00:28:34.08 bitrate=N/A speed=19.2x    frame=41335 fps=460 q=-0.0 size=N/A time=00:28:44.01 bitrate=N/A speed=19.2x    frame=41607 fps=460 q=-0.0 size=N/A time=00:28:55.35 bitrate=N/A speed=19.2x    frame=41852 fps=461 q=-0.0 size=N/A time=00:29:05.57 bitrate=N/A speed=19.2x    frame=42092 fps=461 q=-0.0 size=N/A time=00:29:15.58 bitrate=N/A speed=19.2x    frame=42373 fps=461 q=-0.0 size=N/A time=00:29:27.30 bitrate=N/A speed=19.2x    frame=42643 fps=461 q=-0.0 size=N/A time=00:29:38.56 bitrate=N/A speed=19.2x    frame=42860 fps=461 q=-0.0 size=N/A time=00:29:47.61 bitrate=N/A speed=19.2x    frame=43126 fps=461 q=-0.0 size=N/A time=00:29:58.71 bitrate=N/A speed=19.2x    frame=43384 fps=462 q=-0.0 size=N/A time=00:30:09.47 bitrate=N/A speed=19.3x    frame=43630 fps=462 q=-0.0 size=N/A time=00:30:19.73 bitrate=N/A speed=19.3x    frame=43890 fps=462 q=-0.0 size=N/A time=00:30:30.57 bitrate=N/A speed=19.3x    frame=44147 fps=462 q=-0.0 size=N/A time=00:30:41.29 bitrate=N/A speed=19.3x    frame=44374 fps=462 q=-0.0 size=N/A time=00:30:50.76 bitrate=N/A speed=19.3x    frame=44620 fps=462 q=-0.0 size=N/A time=00:31:01.02 bitrate=N/A speed=19.3x    frame=44838 fps=462 q=-0.0 size=N/A time=00:31:10.11 bitrate=N/A speed=19.3x    frame=45096 fps=462 q=-0.0 size=N/A time=00:31:20.87 bitrate=N/A speed=19.3x    frame=45377 fps=463 q=-0.0 size=N/A time=00:31:32.59 bitrate=N/A speed=19.3x    frame=45623 fps=463 q=-0.0 size=N/A time=00:31:42.85 bitrate=N/A speed=19.3x    frame=45892 fps=463 q=-0.0 size=N/A time=00:31:54.07 bitrate=N/A speed=19.3x    frame=46137 fps=463 q=-0.0 size=N/A time=00:32:04.29 bitrate=N/A speed=19.3x    frame=46375 fps=463 q=-0.0 size=N/A time=00:32:14.22 bitrate=N/A speed=19.3x    frame=46636 fps=463 q=-0.0 size=N/A time=00:32:25.10 bitrate=N/A speed=19.3x    frame=46890 fps=463 q=-0.0 size=N/A time=00:32:35.70 bitrate=N/A speed=19.3x    frame=47127 fps=463 q=-0.0 size=N/A time=00:32:45.58 bitrate=N/A speed=19.3x    frame=47397 fps=464 q=-0.0 size=N/A time=00:32:56.84 bitrate=N/A speed=19.3x    frame=47623 fps=464 q=-0.0 size=N/A time=00:33:06.27 bitrate=N/A speed=19.3x    frame=47884 fps=464 q=-0.0 size=N/A time=00:33:17.16 bitrate=N/A speed=19.3x    frame=48150 fps=464 q=-0.0 size=N/A time=00:33:28.25 bitrate=N/A speed=19.4x    frame=48408 fps=464 q=-0.0 size=N/A time=00:33:39.01 bitrate=N/A speed=19.4x    frame=48670 fps=464 q=-0.0 size=N/A time=00:33:49.94 bitrate=N/A speed=19.4x    frame=48895 fps=464 q=-0.0 size=N/A time=00:33:59.32 bitrate=N/A speed=19.4x    frame=49162 fps=465 q=-0.0 size=N/A time=00:34:10.46 bitrate=N/A speed=19.4x    frame=49357 fps=464 q=-0.0 size=N/A time=00:34:18.59 bitrate=N/A speed=19.4x    frame=49603 fps=464 q=-0.0 size=N/A time=00:34:28.85 bitrate=N/A speed=19.4x    frame=49808 fps=464 q=-0.0 size=N/A time=00:34:37.40 bitrate=N/A speed=19.3x    frame=50076 fps=464 q=-0.0 size=N/A time=00:34:48.58 bitrate=N/A speed=19.4x    frame=50320 fps=464 q=-0.0 size=N/A time=00:34:58.76 bitrate=N/A speed=19.4x    frame=50556 fps=464 q=-0.0 size=N/A time=00:35:08.60 bitrate=N/A speed=19.4x    frame=50807 fps=464 q=-0.0 size=N/A time=00:35:19.07 bitrate=N/A speed=19.4x    frame=51062 fps=464 q=-0.0 size=N/A time=00:35:29.71 bitrate=N/A speed=19.4x    frame=51285 fps=464 q=-0.0 size=N/A time=00:35:39.01 bitrate=N/A speed=19.4x    frame=51553 fps=465 q=-0.0 size=N/A time=00:35:50.18 bitrate=N/A speed=19.4x    frame=51820 fps=465 q=-0.0 size=N/A time=00:36:01.32 bitrate=N/A speed=19.4x    frame=52073 fps=465 q=-0.0 size=N/A time=00:36:11.87 bitrate=N/A speed=19.4x    frame=52325 fps=465 q=-0.0 size=N/A time=00:36:22.38 bitrate=N/A speed=19.4x    frame=52577 fps=465 q=-0.0 size=N/A time=00:36:32.89 bitrate=N/A speed=19.4x    frame=52819 fps=465 q=-0.0 size=N/A time=00:36:42.99 bitrate=N/A speed=19.4x    frame=53075 fps=465 q=-0.0 size=N/A time=00:36:53.66 bitrate=N/A speed=19.4x    frame=53356 fps=466 q=-0.0 size=N/A time=00:37:05.38 bitrate=N/A speed=19.4x    frame=53589 fps=466 q=-0.0 size=N/A time=00:37:15.10 bitrate=N/A speed=19.4x    frame=53828 fps=466 q=-0.0 size=N/A time=00:37:25.07 bitrate=N/A speed=19.4x    frame=54097 fps=466 q=-0.0 size=N/A time=00:37:36.29 bitrate=N/A speed=19.4x    frame=54354 fps=466 q=-0.0 size=N/A time=00:37:47.01 bitrate=N/A speed=19.4x    frame=54587 fps=466 q=-0.0 size=N/A time=00:37:56.73 bitrate=N/A speed=19.4x    frame=54844 fps=466 q=-0.0 size=N/A time=00:38:07.45 bitrate=N/A speed=19.4x    frame=55118 fps=466 q=-0.0 size=N/A time=00:38:18.87 bitrate=N/A speed=19.4x    frame=55375 fps=466 q=-0.0 size=N/A time=00:38:29.59 bitrate=N/A speed=19.5x    frame=55591 fps=466 q=-0.0 size=N/A time=00:38:38.60 bitrate=N/A speed=19.4x    frame=55816 fps=466 q=-0.0 size=N/A time=00:38:47.99 bitrate=N/A speed=19.4x    frame=56057 fps=466 q=-0.0 size=N/A time=00:38:58.04 bitrate=N/A speed=19.4x    frame=56314 fps=466 q=-0.0 size=N/A time=00:39:08.76 bitrate=N/A speed=19.4x    frame=56588 fps=466 q=-0.0 size=N/A time=00:39:20.19 bitrate=N/A speed=19.5x    frame=56863 fps=467 q=-0.0 size=N/A time=00:39:31.66 bitrate=N/A speed=19.5x    frame=57124 fps=467 q=-0.0 size=N/A time=00:39:42.54 bitrate=N/A speed=19.5x    frame=57382 fps=467 q=-0.0 size=N/A time=00:39:53.30 bitrate=N/A speed=19.5x    frame=57644 fps=467 q=-0.0 size=N/A time=00:40:04.23 bitrate=N/A speed=19.5x    frame=57903 fps=467 q=-0.0 size=N/A time=00:40:15.03 bitrate=N/A speed=19.5x    frame=58160 fps=468 q=-0.0 size=N/A time=00:40:25.75 bitrate=N/A speed=19.5x    frame=58420 fps=468 q=-0.0 size=N/A time=00:40:36.60 bitrate=N/A speed=19.5x    frame=58665 fps=468 q=-0.0 size=N/A time=00:40:46.81 bitrate=N/A speed=19.5x    frame=58913 fps=468 q=-0.0 size=N/A time=00:40:57.16 bitrate=N/A speed=19.5x    frame=59144 fps=468 q=-0.0 size=N/A time=00:41:06.79 bitrate=N/A speed=19.5x    frame=59337 fps=467 q=-0.0 size=N/A time=00:41:14.84 bitrate=N/A speed=19.5x    frame=59520 fps=467 q=-0.0 size=N/A time=00:41:22.48 bitrate=N/A speed=19.5x    frame=59700 fps=466 q=-0.0 size=N/A time=00:41:29.98 bitrate=N/A speed=19.5x    frame=59932 fps=466 q=-0.0 size=N/A time=00:41:39.66 bitrate=N/A speed=19.4x    frame=60160 fps=466 q=-0.0 size=N/A time=00:41:49.17 bitrate=N/A speed=19.4x    frame=60389 fps=466 q=-0.0 size=N/A time=00:41:58.72 bitrate=N/A speed=19.4x    frame=60640 fps=466 q=-0.0 size=N/A time=00:42:09.19 bitrate=N/A speed=19.4x    frame=60904 fps=466 q=-0.0 size=N/A time=00:42:20.20 bitrate=N/A speed=19.5x    frame=61132 fps=466 q=-0.0 size=N/A time=00:42:29.71 bitrate=N/A speed=19.4x    frame=61329 fps=466 q=-0.0 size=N/A time=00:42:37.93 bitrate=N/A speed=19.4x    frame=61545 fps=466 q=-0.0 size=N/A time=00:42:46.93 bitrate=N/A speed=19.4x    frame=61776 fps=466 q=-0.0 size=N/A time=00:42:56.57 bitrate=N/A speed=19.4x    frame=62006 fps=466 q=-0.0 size=N/A time=00:43:06.16 bitrate=N/A speed=19.4x    frame=62229 fps=465 q=-0.0 size=N/A time=00:43:15.46 bitrate=N/A speed=19.4x    frame=62445 fps=465 q=-0.0 size=N/A time=00:43:24.47 bitrate=N/A speed=19.4x    frame=62697 fps=465 q=-0.0 size=N/A time=00:43:34.98 bitrate=N/A speed=19.4x    frame=62943 fps=465 q=-0.0 size=N/A time=00:43:45.24 bitrate=N/A speed=19.4x    frame=63188 fps=465 q=-0.0 size=N/A time=00:43:55.46 bitrate=N/A speed=19.4x    frame=63376 fps=465 q=-0.0 size=N/A time=00:44:03.30 bitrate=N/A speed=19.4x    frame=63617 fps=465 q=-0.0 size=N/A time=00:44:13.35 bitrate=N/A speed=19.4x    frame=63873 fps=465 q=-0.0 size=N/A time=00:44:24.03 bitrate=N/A speed=19.4x    frame=64146 fps=465 q=-0.0 size=N/A time=00:44:35.42 bitrate=N/A speed=19.4x    frame=64411 fps=466 q=-0.0 size=N/A time=00:44:46.47 bitrate=N/A speed=19.4x    frame=64657 fps=466 q=-0.0 size=N/A time=00:44:56.73 bitrate=N/A speed=19.4x    frame=64933 fps=466 q=-0.0 size=N/A time=00:45:08.24 bitrate=N/A speed=19.4x    frame=65172 fps=466 q=-0.0 size=N/A time=00:45:18.21 bitrate=N/A speed=19.4x    frame=65362 fps=466 q=-0.0 size=N/A time=00:45:26.14 bitrate=N/A speed=19.4x    frame=65569 fps=465 q=-0.0 size=N/A time=00:45:34.77 bitrate=N/A speed=19.4x    frame=65771 fps=465 q=-0.0 size=N/A time=00:45:43.19 bitrate=N/A speed=19.4x    frame=65957 fps=465 q=-0.0 size=N/A time=00:45:50.95 bitrate=N/A speed=19.4x    frame=66181 fps=465 q=-0.0 size=N/A time=00:46:00.29 bitrate=N/A speed=19.4x    frame=66398 fps=464 q=-0.0 size=N/A time=00:46:09.34 bitrate=N/A speed=19.4x    frame=66576 fps=464 q=-0.0 size=N/A time=00:46:16.77 bitrate=N/A speed=19.4x    frame=66778 fps=464 q=-0.0 size=N/A time=00:46:25.19 bitrate=N/A speed=19.3x    frame=67002 fps=464 q=-0.0 size=N/A time=00:46:34.54 bitrate=N/A speed=19.3x    frame=67208 fps=463 q=-0.0 size=N/A time=00:46:43.13 bitrate=N/A speed=19.3x    frame=67442 fps=463 q=-0.0 size=N/A time=00:46:52.89 bitrate=N/A speed=19.3x    frame=67643 fps=463 q=-0.0 size=N/A time=00:47:01.27 bitrate=N/A speed=19.3x    frame=67844 fps=463 q=-0.0 size=N/A time=00:47:09.66 bitrate=N/A speed=19.3x    frame=68068 fps=463 q=-0.0 size=N/A time=00:47:19.00 bitrate=N/A speed=19.3x    frame=68331 fps=463 q=-0.0 size=N/A time=00:47:29.97 bitrate=N/A speed=19.3x    frame=68566 fps=463 q=-0.0 size=N/A time=00:47:39.77 bitrate=N/A speed=19.3x    frame=68826 fps=463 q=-0.0 size=N/A time=00:47:50.61 bitrate=N/A speed=19.3x    frame=69054 fps=463 q=-0.0 size=N/A time=00:48:00.12 bitrate=N/A speed=19.3x    frame=69310 fps=463 q=-0.0 size=N/A time=00:48:10.80 bitrate=N/A speed=19.3x    frame=69578 fps=463 q=-0.0 size=N/A time=00:48:21.98 bitrate=N/A speed=19.3x    frame=69815 fps=463 q=-0.0 size=N/A time=00:48:31.86 bitrate=N/A speed=19.3x    frame=70027 fps=463 q=-0.0 size=N/A time=00:48:40.70 bitrate=N/A speed=19.3x    frame=70239 fps=463 q=-0.0 size=N/A time=00:48:49.55 bitrate=N/A speed=19.3x    frame=70473 fps=463 q=-0.0 size=N/A time=00:48:59.31 bitrate=N/A speed=19.3x    frame=70694 fps=463 q=-0.0 size=N/A time=00:49:08.52 bitrate=N/A speed=19.3x    frame=70891 fps=462 q=-0.0 size=N/A time=00:49:16.74 bitrate=N/A speed=19.3x    frame=71016 fps=462 q=-0.0 size=N/A time=00:49:21.95 bitrate=N/A speed=19.3x    frame=71155 fps=461 q=-0.0 size=N/A time=00:49:27.75 bitrate=N/A speed=19.2x    frame=71281 fps=460 q=-0.0 size=N/A time=00:49:33.01 bitrate=N/A speed=19.2x    frame=71399 fps=460 q=-0.0 size=N/A time=00:49:37.93 bitrate=N/A speed=19.2x    frame=71553 fps=459 q=-0.0 size=N/A time=00:49:44.35 bitrate=N/A speed=19.1x    frame=71708 fps=459 q=-0.0 size=N/A time=00:49:50.82 bitrate=N/A speed=19.1x    frame=71872 fps=458 q=-0.0 size=N/A time=00:49:57.66 bitrate=N/A speed=19.1x    frame=72118 fps=458 q=-0.0 size=N/A time=00:50:07.92 bitrate=N/A speed=19.1x    frame=72330 fps=458 q=-0.0 size=N/A time=00:50:16.76 bitrate=N/A speed=19.1x    frame=72542 fps=458 q=-0.0 size=N/A time=00:50:25.60 bitrate=N/A speed=19.1x    frame=72782 fps=458 q=-0.0 size=N/A time=00:50:35.61 bitrate=N/A speed=19.1x    frame=73014 fps=458 q=-0.0 size=N/A time=00:50:45.29 bitrate=N/A speed=19.1x    frame=73241 fps=458 q=-0.0 size=N/A time=00:50:54.76 bitrate=N/A speed=19.1x    frame=73444 fps=458 q=-0.0 size=N/A time=00:51:03.22 bitrate=N/A speed=19.1x    frame=73698 fps=458 q=-0.0 size=N/A time=00:51:13.82 bitrate=N/A speed=19.1x    frame=73937 fps=458 q=-0.0 size=N/A time=00:51:23.78 bitrate=N/A speed=19.1x    frame=74181 fps=458 q=-0.0 size=N/A time=00:51:33.96 bitrate=N/A speed=19.1x    frame=74395 fps=458 q=-0.0 size=N/A time=00:51:42.89 bitrate=N/A speed=19.1x    frame=74689 fps=458 q=-0.0 size=N/A time=00:51:55.15 bitrate=N/A speed=19.1x    frame=74963 fps=458 q=-0.0 size=N/A time=00:52:06.58 bitrate=N/A speed=19.1x    frame=75228 fps=458 q=-0.0 size=N/A time=00:52:17.63 bitrate=N/A speed=19.1x    frame=75463 fps=458 q=-0.0 size=N/A time=00:52:27.43 bitrate=N/A speed=19.1x    frame=75714 fps=458 q=-0.0 size=N/A time=00:52:37.90 bitrate=N/A speed=19.1x    frame=75974 fps=459 q=-0.0 size=N/A time=00:52:48.74 bitrate=N/A speed=19.1x    frame=76234 fps=459 q=-0.0 size=N/A time=00:52:59.59 bitrate=N/A speed=19.1x    frame=76497 fps=459 q=-0.0 size=N/A time=00:53:10.56 bitrate=N/A speed=19.1x    frame=76762 fps=459 q=-0.0 size=N/A time=00:53:21.61 bitrate=N/A speed=19.1x    frame=77035 fps=459 q=-0.0 size=N/A time=00:53:33.00 bitrate=N/A speed=19.2x    frame=77296 fps=459 q=-0.0 size=N/A time=00:53:43.88 bitrate=N/A speed=19.2x    frame=77559 fps=460 q=-0.0 size=N/A time=00:53:54.85 bitrate=N/A speed=19.2x    frame=77833 fps=460 q=-0.0 size=N/A time=00:54:06.28 bitrate=N/A speed=19.2x    frame=78134 fps=460 q=-0.0 size=N/A time=00:54:18.83 bitrate=N/A speed=19.2x    frame=78318 fps=460 q=-0.0 size=N/A time=00:54:26.51 bitrate=N/A speed=19.2x    frame=78521 fps=460 q=-0.0 size=N/A time=00:54:34.98 bitrate=N/A speed=19.2x    frame=78728 fps=459 q=-0.0 size=N/A time=00:54:43.61 bitrate=N/A speed=19.2x    frame=78933 fps=459 q=-0.0 size=N/A time=00:54:52.16 bitrate=N/A speed=19.2x    frame=79160 fps=459 q=-0.0 size=N/A time=00:55:01.63 bitrate=N/A speed=19.2x    frame=79357 fps=459 q=-0.0 size=N/A time=00:55:09.84 bitrate=N/A speed=19.1x    frame=79538 fps=459 q=-0.0 size=N/A time=00:55:17.39 bitrate=N/A speed=19.1x    frame=79713 fps=458 q=-0.0 size=N/A time=00:55:24.69 bitrate=N/A speed=19.1x    frame=79903 fps=458 q=-0.0 size=N/A time=00:55:32.62 bitrate=N/A speed=19.1x    frame=80084 fps=458 q=-0.0 size=N/A time=00:55:40.17 bitrate=N/A speed=19.1x    frame=80276 fps=457 q=-0.0 size=N/A time=00:55:48.17 bitrate=N/A speed=19.1x    frame=80500 fps=457 q=-0.0 size=N/A time=00:55:57.52 bitrate=N/A speed=19.1x    frame=80729 fps=457 q=-0.0 size=N/A time=00:56:07.07 bitrate=N/A speed=19.1x    [Parsed_ssim_10 @ 000001b6a29d0700] SSIM Y:0.993737 (22.032465) U:0.994137 (22.319170) V:0.994197 (22.363226) All:0.993881 (22.132939)
[out#0/null @ 000001b69856f200] video:34783KiB audio:633244KiB subtitle:0KiB other streams:0KiB global headers:0KiB muxing overhead: unknown
frame=80949 fps=458 q=-0.0 Lsize=N/A time=00:56:16.24 bitrate=N/A speed=19.1x    
